<mxfile host="app.diagrams.net" modified="2023-08-13T14:13:50.343Z" agent="Mozilla/5.0 (Windows NT 10.0; Win64; x64) AppleWebKit/537.36 (KHTML, like Gecko) Chrome/115.0.0.0 Safari/537.36" etag="M_esHNUD72dUZxifn__y" version="21.6.8" type="github">
  <diagram name="ページ1" id="La4_uJBBqhzAdmq8so5f">
    <mxGraphModel dx="911" dy="872" grid="0" gridSize="10" guides="1" tooltips="1" connect="1" arrows="1" fold="1" page="0" pageScale="1" pageWidth="827" pageHeight="1169" math="0" shadow="0">
      <root>
        <mxCell id="0" />
        <mxCell id="1" parent="0" />
        <mxCell id="0gK9YHsQ5Sf0v4sDr2Zv-1" value="&lt;font style=&quot;font-size: medium;&quot; face=&quot;メイリオ&quot;&gt;　Step1：&lt;/font&gt;&lt;font style=&quot;font-size: medium;&quot; color=&quot;#ff0000&quot; face=&quot;メイリオ&quot;&gt;class-map&lt;/font&gt;&lt;font style=&quot;font-size: medium;&quot; face=&quot;メイリオ&quot;&gt;コマンドでトラフィッククラスを定義&lt;br&gt;&lt;font face=&quot;メイリオ&quot;&gt;　Step2：&lt;/font&gt;&lt;font color=&quot;#ff0000&quot; face=&quot;メイリオ&quot;&gt;policy-map&lt;/font&gt;コマンドで1つまたは複数のQoS機能をトラフィッククラスに関連付け、ポリシーを作成&lt;br&gt;　Step3：&lt;/font&gt;&lt;font style=&quot;font-size: medium;&quot; color=&quot;#ff0000&quot; face=&quot;メイリオ&quot;&gt;service-policy&lt;/font&gt;&lt;font style=&quot;font-size: medium;&quot; face=&quot;メイリオ&quot;&gt;コマンドでインターフェースにトラフィックポリシーを割り当て&lt;br&gt;&lt;/font&gt;" style="text;html=1;align=left;verticalAlign=middle;resizable=0;points=[];autosize=1;strokeColor=none;fillColor=none;" vertex="1" parent="1">
          <mxGeometry x="91" y="192" width="815" height="70" as="geometry" />
        </mxCell>
        <mxCell id="0gK9YHsQ5Sf0v4sDr2Zv-2" value="Cisco(config)# access-list 1 permit 192.168.1.0 0.0.0.255&lt;br&gt;Cisco(config)# class-map match-all Class-VoIP&lt;br&gt;Cisco(config-cmap)# match access-group 1&lt;br&gt;Cisco(config-cmap)# exit&lt;br&gt;Cisco(config)&lt;br&gt;192.168.1.0/24ネットワークからのトラフィックを許可するルールを設定しています。" style="text;html=1;align=left;verticalAlign=middle;resizable=0;points=[];autosize=1;strokeColor=none;fillColor=none;" vertex="1" parent="1">
          <mxGeometry x="110" y="285" width="482" height="98" as="geometry" />
        </mxCell>
        <mxCell id="0gK9YHsQ5Sf0v4sDr2Zv-5" value="" style="whiteSpace=wrap;html=1;fontFamily=Helvetica;fontSize=11;fontColor=default;" vertex="1" parent="1">
          <mxGeometry x="415" y="8" width="279" height="160" as="geometry" />
        </mxCell>
        <mxCell id="0gK9YHsQ5Sf0v4sDr2Zv-6" value="" style="whiteSpace=wrap;html=1;fontFamily=Helvetica;fontSize=11;fontColor=default;" vertex="1" parent="1">
          <mxGeometry x="110" y="8" width="305" height="160" as="geometry" />
        </mxCell>
        <mxCell id="0gK9YHsQ5Sf0v4sDr2Zv-7" value="" style="image;html=1;image=img/lib/clip_art/networking/Router_Icon_128x128.png" vertex="1" parent="1">
          <mxGeometry x="333" y="40" width="80" height="80" as="geometry" />
        </mxCell>
        <mxCell id="0gK9YHsQ5Sf0v4sDr2Zv-8" style="edgeStyle=none;shape=connector;rounded=0;orthogonalLoop=1;jettySize=auto;html=1;exitX=0;exitY=0.5;exitDx=0;exitDy=0;entryX=1;entryY=0.5;entryDx=0;entryDy=0;labelBackgroundColor=default;strokeColor=default;fontFamily=Helvetica;fontSize=11;fontColor=default;endArrow=none;endFill=0;" edge="1" parent="1" source="0gK9YHsQ5Sf0v4sDr2Zv-9" target="0gK9YHsQ5Sf0v4sDr2Zv-7">
          <mxGeometry relative="1" as="geometry" />
        </mxCell>
        <mxCell id="0gK9YHsQ5Sf0v4sDr2Zv-9" value="" style="image;html=1;image=img/lib/clip_art/networking/Router_Icon_128x128.png" vertex="1" parent="1">
          <mxGeometry x="615" y="40" width="80" height="80" as="geometry" />
        </mxCell>
        <mxCell id="0gK9YHsQ5Sf0v4sDr2Zv-10" style="rounded=0;orthogonalLoop=1;jettySize=auto;html=1;exitX=1;exitY=0.5;exitDx=0;exitDy=0;exitPerimeter=0;entryX=0;entryY=0.5;entryDx=0;entryDy=0;endArrow=none;endFill=0;" edge="1" parent="1" source="0gK9YHsQ5Sf0v4sDr2Zv-11" target="0gK9YHsQ5Sf0v4sDr2Zv-7">
          <mxGeometry relative="1" as="geometry" />
        </mxCell>
        <mxCell id="0gK9YHsQ5Sf0v4sDr2Zv-11" value="" style="sketch=0;points=[[0.015,0.015,0],[0.985,0.015,0],[0.985,0.985,0],[0.015,0.985,0],[0.25,0,0],[0.5,0,0],[0.75,0,0],[1,0.25,0],[1,0.5,0],[1,0.75,0],[0.75,1,0],[0.5,1,0],[0.25,1,0],[0,0.75,0],[0,0.5,0],[0,0.25,0]];verticalLabelPosition=bottom;html=1;verticalAlign=top;aspect=fixed;align=center;pointerEvents=1;shape=mxgraph.cisco19.rect;prIcon=l2_switch;fillColor=#FAFAFA;strokeColor=#005073;" vertex="1" parent="1">
          <mxGeometry x="113" y="55" width="50" height="50" as="geometry" />
        </mxCell>
        <mxCell id="0gK9YHsQ5Sf0v4sDr2Zv-14" value="Fa4&lt;br&gt;.2" style="text;html=1;align=center;verticalAlign=middle;resizable=0;points=[];autosize=1;strokeColor=none;fillColor=none;" vertex="1" parent="1">
          <mxGeometry x="576" y="82" width="39" height="41" as="geometry" />
        </mxCell>
        <mxCell id="0gK9YHsQ5Sf0v4sDr2Zv-15" value="Fa4&lt;br&gt;.2" style="text;html=1;align=center;verticalAlign=middle;resizable=0;points=[];autosize=1;strokeColor=none;fillColor=none;" vertex="1" parent="1">
          <mxGeometry x="424" y="85" width="39" height="41" as="geometry" />
        </mxCell>
        <mxCell id="0gK9YHsQ5Sf0v4sDr2Zv-16" value="Fa0&lt;br&gt;.1" style="text;html=1;align=center;verticalAlign=middle;resizable=0;points=[];autosize=1;strokeColor=none;fillColor=none;" vertex="1" parent="1">
          <mxGeometry x="293.5" y="88" width="39" height="41" as="geometry" />
        </mxCell>
        <mxCell id="0gK9YHsQ5Sf0v4sDr2Zv-17" value="192.168.1.0/24" style="text;html=1;align=center;verticalAlign=middle;resizable=0;points=[];autosize=1;strokeColor=none;fillColor=none;fontSize=11;fontFamily=Helvetica;fontColor=default;" vertex="1" parent="1">
          <mxGeometry x="206" y="18" width="91" height="25" as="geometry" />
        </mxCell>
        <mxCell id="0gK9YHsQ5Sf0v4sDr2Zv-18" value="172.16" style="text;html=1;align=center;verticalAlign=middle;resizable=0;points=[];autosize=1;strokeColor=none;fillColor=none;fontSize=11;fontFamily=Helvetica;fontColor=default;" vertex="1" parent="1">
          <mxGeometry x="515" y="8" width="52" height="25" as="geometry" />
        </mxCell>
        <mxCell id="0gK9YHsQ5Sf0v4sDr2Zv-19" value="192.168.1.0/24" style="whiteSpace=wrap;html=1;fillColor=#dae8fc;strokeColor=#6c8ebf;" vertex="1" parent="1">
          <mxGeometry x="246.5" y="43" width="86" height="37" as="geometry" />
        </mxCell>
        <mxCell id="0gK9YHsQ5Sf0v4sDr2Zv-20" value="" style="image;html=1;image=img/lib/clip_art/networking/Router_Icon_128x128.png" vertex="1" parent="1">
          <mxGeometry x="199.5" y="396" width="429.5" height="273" as="geometry" />
        </mxCell>
        <mxCell id="0gK9YHsQ5Sf0v4sDr2Zv-22" value="" style="whiteSpace=wrap;html=1;" vertex="1" parent="1">
          <mxGeometry x="183.13" y="555" width="486.87" height="129" as="geometry" />
        </mxCell>
        <mxCell id="0gK9YHsQ5Sf0v4sDr2Zv-23" value="192.168.1.0/24" style="whiteSpace=wrap;html=1;fillColor=#dae8fc;strokeColor=#6c8ebf;" vertex="1" parent="1">
          <mxGeometry x="196" y="581" width="86" height="37" as="geometry" />
        </mxCell>
        <mxCell id="0gK9YHsQ5Sf0v4sDr2Zv-25" value="Policy-map" style="text;html=1;align=center;verticalAlign=middle;resizable=0;points=[];autosize=1;strokeColor=none;fillColor=none;" vertex="1" parent="1">
          <mxGeometry x="183.13" y="555" width="77" height="26" as="geometry" />
        </mxCell>
        <mxCell id="0gK9YHsQ5Sf0v4sDr2Zv-26" value="Class-map" style="text;html=1;align=center;verticalAlign=middle;resizable=0;points=[];autosize=1;strokeColor=none;fillColor=none;" vertex="1" parent="1">
          <mxGeometry x="110" y="-18" width="75" height="26" as="geometry" />
        </mxCell>
        <mxCell id="0gK9YHsQ5Sf0v4sDr2Zv-30" value="" style="shape=image;verticalLabelPosition=bottom;labelBackgroundColor=default;verticalAlign=top;aspect=fixed;imageAspect=0;image=data:image/png,iVBORw0KGgoAAAANSUhEUgAAAuIAAAFaCAYAAABbkji6AAAAAXNSR0IArs4c6QAAAARnQU1BAACxjwv8YQUAAAAJcEhZcwAADsMAAA7DAcdvqGQAAGoYSURBVHhe7d0HfBTV2sfxJ4QkEELovXeQDqIUBVQQQUXF3utVLNfer51rw97ba8OrAoIdxIIiSEdBkI703ltCOu/+DjPcNTdAsiCzkP/Xz0oyu9lsdmfOec5znjkTszPERERERETkoCri/SsiIiIiIgeRAnERERERkQAoEBcRERERCYACcRERERGRACgQFxEREREJgAJxEREREZEAKBAXEREREQmAAnERERERkQAoEBcRERERCYACcRERERGRACgQFxEREREJgAJxEREREZEAKBAXEREREQmAAnERERERkQAoEBcRERERCYACcRERERGRACgQFxEREREJgAJxEREREZEAKBAXEREREQmAAnERERERkQAoEBcRERERCYACcRERERGRACgQFxEREREJgAJxEREREZEAKBAXEREREQmAAnERERERkQAoEBcRERERCYACcflbpaam2ubNmy0jI8PbIiIiIiKI2RnifS0Ske3bt9u6deuMXalu3breVrM1a9bYli1bbMaMGVa/fn1r1KiRFStWzLtXREREpHA7bAPxVatWWUpKivdd3mrXrm1FixZ1X6enp9umTZtcUBkbG2tJSUlWoUIFd19uPI4AMysra5+PRU5Ojnv+/GSFixQpYgkJCRYfH+9tCQ5/3/r162316tXWvHlz97fmZd68eTZy5Ej32q+55hq3jd1qyJAhlpaWZjNnzrRq1apZjx49rGHDhu5+ERERkcLusA3EBwwYYLNmzXIBIYFwdna2xcTE7A68+ffOO++0UqVKuWBz/vz5Nm3aNJfFJWtbuXJlO/bYY61q1apWvHhx9zNYtmyZjRkzxj2eQDUuLs4Fmccdd9xfssHhNmzY4ILVFStWeFvylpmZ6X7XEUccsc+Alb+Jv4fbgcTfx+soX768e+++++47++KLL+ytt976y/sQbvz48faf//zHEhMT7amnnnLb+NlnnnnGvU/du3e3lStXWuvWrd17KiIiIiKHcSD+0ksv2YQJE1wmmkB47dq1lpyc7IJmgtfSpUtb//79XfD4f//3fzZixAiX8SUIJkj//fffXWb6n//8px1zzDHuZwhQ77rrLps4caJVqlTJBelk3Qk2a9as6Z6H58tt3LhxNnDgQPece/Pnn3+6YPfmm2+266+/3tv6vxhU8PeQNS9TpozLRB8ot99+uwuar7rqKmvVqpULwj/77DP78ssvvUf8r7wCcd/TTz9tZcuWdcF4jRo1vK0iIiIiUihqxD/55BN36927t1100UXe1l1GjRplzz33nHXt2tUuuOACF2Bj7ty59thjj7ls+eeff+4y33PmzLEHHnjATjrpJDvnnHNcSQpZcTLkDz74oAvazzrrrIiz1I8++qgbEJx33nl7DcTJWv/73/92Gfgrr7zSZa8PlP0JxBlEEHiLiIiIyL4V+lVTCNApRaFsIrzOm5ML77jjDldOwmN27NhhixYtcjXkZKL9Gm6y50ceeaS9+uqr1q1bt/0qFdm6dat7LeXKlfO25O311193derNmjXb52MPJmrgmX0QERERkX0r9IE4NeFt2rRx2eXwEg/KVEqUKOHKWag1pyyF+mYC9Lffftvuvvtud4IiwTOZcVYEod48UpSaLFmyxJXM1KpVy9v6V5TA3Hrrre5xl1xyicviE/hz4ujs2bMLdCPjv3z5cu+Z9x8B+NChQ+3CCy902XQy6FqyUERERGTPCn1pyhlnnGE9e/a0Pn36/E+Jx+LFi13AW7JkSXfyJ9nnhQsX2ujRo105Bkv2kUXv0KGDew6/rCUSlHYQ4PM81157rfudPurcv/nmG1dnzsd16aWXurp1Bglkxr/99lv7+OOPvUfnDxn9pk2b2kMPPeRt2YXSFE4EpeSlSpUqeyxN+eqrr6xixYruOVie8J133nEDBAY1fM9r5r1p3Lixe285+ZSaexERERHZJTYUiP01EjsMkdHmRta6RYsW3tZdBg0aZHXq1HEBI5ntcFyIhvpwstSnnnqqq4Hm5Mjq1atbgwYNXOBNNpqTQqkT53nYVtDylN9++82VtlDmwmCBE0ZB/TmDAU4CJSCmTIaAtlevXu5EUfC7OEmSjD4lMvm9tW3b1r0XnLzqI5BmwEKATbad10PmnNr4888/33uU2a+//movvPCCC9h5H5gVYIlCBirXXXede15eD+85QTnvGSezhg8uRERERAq7Ql+aQvkJSwtSGpIbgSa14Zy0yMmaS5cutUmTJrlVS8j8EpxTisHShQSxgwcPdhnrgmDJRIJaTpBkZZGWLVu67QTgZJlZ/YXHsAY3ATTBbvh63tSU+8F5QW6ccHrUUUd5z7ILq8HwPpDJZvCRFwYdnNxK2QnrsIcH1wwICMw7d+7sZho4efXiiy92a5DzPouIiIjIfxX6QJzAlyCauunwCwBR8/zTTz+5rDRBMAEvATsXqeFfkEEnyDz++ONdhnpfyxP6CPApKRk2bJg9++yz7ucI6rmxfjn4/WSi+b1nn322XXbZZS7I/bsu9MOl6BlkUOfO7wlfM5yBB7X0lKMQhJMBZ2UXAu686uLJ0hN4d+nSxQ1Ujj76aFdGIyIiIiL/VegDcYJsasN/+eUX+/rrr13Gl8wwNdHcyHaT/SYjTpaYrPiPP/7oSlHIVE+ePNmmTJniVlPxs9l7QhkLP8MShR999JErR6H048wzz3SBdvgFgQjICcyvvvpqtyQimef9WZFlXxh0MMAgaGY1Fh8DEZZL/PDDD+29995zgxXqxymhyU9NPAH5nq7IKSIiIlKYFYoacYJnLnnfpEkTVwsejmCScpIFCxa4mmZWEmF1EgJkSi+oeSYAJwgm671t2zZX90xNNBlrAmvKSKirJpimrGNPATPPyQmZZJb5mrpp1iOnfCN3UEsGmZpz6qt9DBBYvYVAOXz7/mJZxieffNIFzdSC+4E4v4uLDHF1TTLmvHecSNqxY8e/1NPznk2fPt0NVk488URvq4iIiIjsTaEIxAmMqa2m5CKvi98QYLL6B0E0JRkExaxKQubXD8J9rDfOCY5khikfISClNIXVVbhy5N6y1pTAjB071gXZlJvcc889LotO+Ul+/F2BOKuu+CdktmvXbvfqJmSyufE9Away8/ztnMQZjjIbBjqUqRCki4iIiMi+FYrlCw8XnLxJZpqyELLpBxJ16swARLIWOoMD6sYpY8lPuYqIiIiIKBAXEREREQlEoT9ZU0REREQkCArERUREREQCoEBcRERERCQACsRFRERERAKgQFxEREREJAAKxEVEREREAqBAXEREREQkAArERUREREQCoEBcRERERCQACsRFRERERAKgQFxEREREJAAKxEVEREREAqBAXEREREQkAArERUREREQCoEBcRERERCQACsRFRERERAKgQFxEREREJAAxO0O8r6NGSkqKzZo1y37//Xdvi+yP2KKxZqFPOTs729sikYqJiXG3nJwcb4tEqkiRoqH/7wy9l9ov95e/X9KcR2GTfkjhfYTex/3He1mkSFzoGM/U+3kAaN88MHgf4+LirHv37laxYkWLjQ3FSAGKykB8yZIl9sJLL9jwH4dbxWoVd+98EpmFsxZaYlKiVa5Z2dsikUhLSbMl85dYbJFYq9u0rhWJ1YTS/lgyd4WlpRW10pWqWULxEt5WKaic7CzbvmWDrVoww+q37myxcfHePRKJdcsXWMaOVCtdsbqVKFXW2yqRyM7KtAW/jrW6rdpbXEIxb6tEYvPalZa+da1VrlDWatas6W2VSJBII9n7xhtvWKdOnSwxMdG7JxhRGYjPnTfX+r/Q32p3qG29zu+lgGc/3X/J/dawRUO7+PaLvS0SieULl9sb/d6wmJwYu/e1e61YojqW/fHcbS/YqjWlrPPZN1ilmg28rVJQ6TtSbO7kH23Aw1faQ0NnWVLp8t49Eolhbz9q65cvsk69Lw8NbDp5WyUSqVs32R3dK1u/L+Zb2coKHvfH5BGDbNmUYXZ6947Wt29fb6tEIj093fr06WNXXHGFdevWzUqVKuXdEwxFuCIiIiIiAVAgLiIiIiISAAXiIiIiIiIBUCAuIiIiIhIABeIiIiIiIgFQIC4iIiIiEgAF4iIiIiIiAVAgLiIiIiISAAXiIiIiIiIBUCAuIiIiIhIABeIRysrKsrQdaZaRnuFtkf3Fe5mTk+N9J5HIyc5x76P2ywMjMyPdMnakht7XbG+L7I+doeM7Mz3Nva8SiZ1uf0zPdcvOzPTul4LKyckOtZehvjxth7dFCmLnzp2WlpZmqamp/3PL1H6ZLwrEI7B963ZbMm+JTZ803Wb/Pts2rt3ognKJHIHjwtkLLXV7qrdFCmpHyg5btXSVzZo6y2ZNm6X9cj/s3JljWzeusWVzptmCqeNt/fJFoYAnxQWSEhkCnq0b19qiPybbygWzvK2SXwQ8GaGAZ96UX2z+lLF/ua1fvliDxQhkpKXa+hWLbdGMyaHbFNu2aZ13j+QXwfaMGTNs3LhxNnbs2N23MWPG2IIFC1zSUvZOgXgBZYcau4EvDbT7LrrPnrj2CXv40oft3ovutXEjxrmGUgqGDHhWZpb9Pv53e+uRt2z5guXePVIQ7HvfffKdPfyPh+2Ryx9xt7vPu9vGDBvjPULyLfRepmzZZG/eeY4NeORKG/jMjfb2/RfZ5BEDLWXrJu9BUlBbN6yxXz5/216+qZd983Y/b6vkV1Zmhi2e8Zu9cdcZNvDp6+2T52/efZsw/D+2ec0q75GSHwyqp436wt6+93z78PG+NrD/9fb+g5dbdpayuAWxbds269+/v91666128803u9tNN91k559/vj399NO2cuVK75GyJwrEC2jIm0Nswg8TrP1J7e2pz56yu1+524qXKG6fv/25bV632XuU5AfZ74k/TLQnb37Snr3tWduwZoN3jxTUotmLbMxXYyypZJLbJ+974z5LKpNkX7z7hfcIya8tG1bbZy/9K9RR77Srnxhkt772vdVp2s6m//ylLfx9nPcoKagV86fb1JFDvO8kEjExMVamci27/rkv7J4B43ffel11T2h7Ve9Rkh/Tfv7Kpv74uTVud4I7xi+89zVbv2qpffVmP0tL3eY9SvalbNmy9t5779kvv/xi48ePd7c33njD2rdvb/Hx8ZaQkOA9UvZEgXgBLfxjoZUqW8raHNPGatWrZS07trQ+/+hjWzZusYmjJiorXgDxxeKtXrN61uWMLpZcOtl1MhKZ3yf87sp7jjrhKLdP1mpcy9oe19aWzF1iC+YuUO19AVCDu2T2FGvQ6hgrU6m6lSpfOfR+tnUZya2b1nqPkoKgFGXOhB9D72GmVandxNsqkYgpUsQSEpOsWInk3be4hGJuu+TfhpWLLLZoUWt4ZFd3jFesWd+O6n6elSxZLtQX6b3ML/rtEiVKWHJy8u7b6tWrXSxUq1YtK1++vPdI2RPtbQWwfct2l8Wt1bCW1ahXw4qGDuKEYglWrmI5i4uPs7nT5popDs+32NhYK1uxrLVs19IF5QrEI1eyTElr2r6p1Wtez+2T2RnZlpmWaaXLl7YSiSX03hZAqYpV7aL7XrfOZ/d1AQ8BTtqOFCKg0DEf7z1K8is9LcX+nD7ONq1bbk2OOsGKxitDFomsjDRbNvdXK5FUyiaNGGhDn7/LvnztIZs/bWxoEK4TDQtiy7o1tnbJfIsJhUAxVtSmjvzMFvw2xloef5q17XG2G9hI5KZPn+4y4Q0aNHD9vOydAvEC2LRxk21YvcHii8dbYnKit5X+ORTkhALwlQtXhv5RJJ5fBIcMZkokhQLF0H8SuVYdWlnP83paw+YN3ffrV623OVPmWM36Na1cBTI8en/zKz6huNU+4kgrW6WmrV22wMZ//UHovfzJqtVrbtUbtPQeJfm1+I/JtnTOVKtYs4E1ane8t1UKiprm1C0bbP3KRbZi/gwrVb6abVqz3MZ/8a79GQrGJf9YucdiYm3rhtU2Z9IPNu+30fbH2G/sl8//z+vB1V5GauPGjTZv3jyXDW/RooW3VfZGgXgBpGek247UHZazM2dX8B2Gqf8d25WVkGCUr1zeBd2UTc2fPt+GfzjcUralWI/zerjZBonM9s0bbNnc323j6qUWl5BgCYklvHskP7asX23zfxtjsXFx1vzYXpZcrqJ3jxRUkaJFrXyNetawTVdrc8IZ1uq406xll95udZ95U0bZto0qmyqInKxMy0hPtRKly1qLzqdY3ZYdbfbEH2zS8A9Dgbr68khNnjzZBeN169a1GjVqeFtlbxSIixxGFs9dbN8P+d4tBdmhZwdrd1w77x6JBDXiR7TvZnWbtbcNqxbb2qXzvXskP8jULp83zc14padsD309w9JSt1vK1s2h+8ZZTraWNsuvuPhiVq91R+t24c3W/JheVr5aLWt01HGhfbSGrV+52C3DJ/mXmZFmiSXLWINWx9oRHbpbwyO7WNGicS5DnqV17iM2evRoK1asmNWpU8f9K/umQLwAkkslW1KpJJf5Tt323/WuuYgKyxpWqFbB2yJy8C2dv9SGfzTcZk6eaW26tLHuZ3d3K/pI/hEYblm3ymaO+zZ0jG+xspVrWLNOJ1mrLqfZ9k3rbdm83y09NcV7tOzLmiVzLWXLBtu0aon99sMQmz3xexeIb9u8zqaO/NSdACv5Q2kKg5nSocFhkdiiblvxEiUtqXQ5VxqZwXkMUiAE4iXLVXZfF+Ek2OIl3NriOtkrMlzYZ+HChda4cWOrV6+et1X2RYF4AVSsXNGq161ua5evtdVLVrttaalptnbFWncxlebtm6sWVwLBxXtGDBphk36YZLUb1bbuZ3W3CpU0MCwoLoqyYdVSG/HuE7Zi/h+71xROSCzpuua07dt21ZdKvlSpe4Q1aN3ZKtZuaMVKlrJiocAxLj7B1eEnlS2v9rIAGMBM/uZjmzF2uBcs7iqdYmBYIhSMl1TZT77FF0sM7YtJbuCdlrLV27pL0ThK+bRfRmLRokXuipotW7a02rVre1tlXxSIF1C9I+rZjm07bO7UubZswTKb9essG//deIuLi7MmbZq4KViRg23CyAk26vNRlpiUaK06tbKcrBy3tjhXgN24bqOW1cwnVvQoWbaCZWZm2PRRX9i65Qtt/YpFNnPCCMvKyrBKdRpaUply3qNlX1odd7r1vu4R63PjE+52bJ9/WInkMla2UnU76fK7LS4UkEv+cLXX7ds2hoLxj2zVotm2MTRgnDn2G9u0doVVqFHfylWt5T1S9iW5fAWrVr+ZZWWm25/TxrjB98ZVy1y5SoUaDayIVvqIyKhRo2zHjh1WsWJFt6Sh5I8C8QLqekZXa9Cigbti4WsPvWafvf2ZKwk48bwTrVHLRhpIRyghMcGKlSgWagC1S0Zi9uTZoQ55k5ud+fStT63/Tf3d7YW7X7DRw0a70inJH9ZlbnzUCTZ+2Hv2w4fP29dv/tumfDvQkstVsoo1d61KI5EpUiTW4ouVcBlJKZhiiSWtXY/zbN2KhfbdgGdtxPtPh/bRD6x4UrLVbNzaEooneY+U/KjfqpNbP3z8sAH27ftP2Y8DX7Yd27dY+1MucTM2UnC//vqry4RXqKDZ2IJQ1FNA5SuVt8vvutwuueMSq9+8vjVp28Quu+syu/T2S71HSEExPd3plE7uwj6lK5T2tkpBtDq2lZ19/dnW6+Je1u6Edrtv1IrXql/LiugCFflWskx5O+Wqf9k5tz1vWWmplrFjmx17xlV2+rWPWL0W7b1HSSSSy1W21l3OsKbtT/K2SH6xtnXDtl3sin9/YKUrVrXUzeus6dHd7aTL7rQGrY/xHiX5VbV+M+t+yR12dM+L3LKQ5arWsUsffi8UoHe0WFeeIgXF1TQvv/xyt3645F/Mziics547b671f6G/1e5Q23qd3yvqsqS8ZdlZ2e4kTTLgvD7Ww45W919yvzVs0dAuvv1ib0v0yczIdO8rJT65l4aMFssXLrc3+r1hMTkxdu9r91qxxOg5IzwrM2vX/phb6K3kggqxRaNvqvW5216wVWtKWeezb7BKNaOv4c7OzLDs7Cy3X8bGFg29h+yb0TegSd+RYnMn/2gDHr7SHho6y5JKR++V7Djh0NXdcw2BKA12hr39qK1fvsg69b7c6rfu5G2NHtQ1Z/Eeht5LTtqM1v0SqVs32R3dK1u/L+Zb2co1va3Rw98feU95D3kv/RNho83kEYNs2ZRhdnr3jta3b19va3TJyMhwJ73S50Tz+R/p6enWp08fu+KKK6xbt25WqlQp755gKE0WAXawonFF3frM8QnxUR2EHyq4MinvZbQG4dFu9/6Y+xZ6T6MxCD8UkBWjhIKVFKgd1yXE9x/vIe9ltAbhhwICRUon4rVf7jd/f+S95HyFaA3CDxXx8bviIZ2EXTA6gkVEREREAqBAXEREREQkAArERUREREQCoEBcRERERCQACsRFRERERAKgQFxEREREJAAKxEVEREREAqBAXEREREQkAArERUREREQCoEBcRERERCQACsRFRERERAKgQFxEREREJAAxO0O8r6PG3Hlz7fFnHrdS9UtZpx6drEisxgv746V7XrJajWpZ78t6e1skEmuWrbEhrw+xnJwcu/qBqy2heIJ3j0RiwNMf2fr1Sda2+3lWtmotb6sUVGZaqi2aPt6+fPVhu+7FLywxuYx3j0RizKdv2eZ1K61119OseqNW3laJRNr2rfbMP7rYDS8Nt1Llq3hbJRJzxnxjq/8YbZ07trTzzjvP2yqRyMjIsJtvvtluuOEGO/HEE61UqVLePcGIykB85syZdte9d9mOmB1Wp2Edi4mJ8e6RSEwaNclKlyttDZs39LZIJFK3pdq83+dZZnamte7U2ooWLerdI5GY9NMUS00tYrWPaGVJpcp7W6WgcrIybfOaVTbr11/s6B59LC6hmHePRGLZ3N9tR8p2q1yrgSWXq+htlUhkZaTbmK8/sg4nnW3FEpO8rRKJNYvm2vrl861m9SrWtm1bb6tEIjs727788kt74IEH7JRTTrHSpUt79wQjKgPxWbNmuTeoTLky1q5dO4spokB8f6SmpFpsbKwlFFMGd3/szNlpmemZlrUzyxKLJ4aOHu8OiciIr0dYeqijPrpDe6tYsaq3VQpup2VnZlvKjhQrWbKkxcRoBnF/ZKSnuVmvuPj4ULupwfb+2Lkzx7Zs2WLJpUpZEe2X+2Xhwvn2x4zpVq5sOevatau3VSKRmZlpr7/+ut1xxx3Wq1cvBeJ5mTdvnr3wwgvWoUMHO//8810QKSKHl6efftpSU1PdMd6gQQNvq4iI5DZp0iQbMWKEVatWza688kpvq0QiPT3d+vTpY1dccYV169Yt8NIUDVFFRERERAKgQFxEREREJAAKxEVEREREAqBAXEREREQkAArERUREREQCoEBcRERERCQACsRFRERERAKgQFxEREREDgguIb9t2zbbsWOHt0X2RoG4iIiISCE3f/58e/HFF23OnDnelr1bt26dvf322+5y8QTfvj/++MM++ugjmzBhgrclb5s3b7aVK1fa8uXL83U7XAN7BeIiIhIRrlC3fv16W7169R5vXD01mqWkpNjatWttw4YNfwkmcuMi1DzO/7vS0tK8e/4+vL9bt251l+QW+bsRFBNUb9q0yduydxwzAwcOtGXLlv3lmCcQHzVqlE2bNm33tjVr1rjAO9x3333nAvl3333X/vOf/7jb//3f/9kzzzyz+3v/9tZbb9mff/7p/eThJfahEO/rqMGHO3HiRKtRo4Y1b97cihTReEHkcDNu3DgXYHCMlytXztsqh5IlS5bYt99+6y6/PX36dHcbO3aszZ4922bMmOG+j4mJsQoVKlhcXJz3U9EhOzvbBR5fffWVe53z5s1zr7NMmTLeI3bhcWT+fvzxRxdczJ071wUYBB/8TSVLlrSiRYt6jz6wyFCOHz/e9YEVK1b0tkphtGLFCluwYIElJydbmzZtvK2R49idOnWqC5rZ97lNmTLFJk+ebDVr1rRVq1bt3s7vLlGihLv5GIhynH/xxRd2wgknuON91qxZbtvvv/9uixcvdgNbgm+2sS/zdcOGDb1nMHv99dftt99+c8/LZeZpK/g5jjX+Rr7ntmXLFhs5cqS1bt3aGjRo4P105DimBw0a5J6vbt26VqxYMe+eYCjCFRGRiJBNpuMkQGA6e/jw4a5zJVBlGzeyYQcje1xQZJsZDH744Ycu2CDbxt+TGxlpMnf+lP3SpUtt4cKFNmTIEPv0009t0aJF3iMPPKbjf/75Z/f6RA4k9qnPP//c3nvvvd03BtVkrjmOw7ezrxOMhyNhSuBOEMvggEEtg1NuPMf27dtdZt3fxr7MjFJujRo1sosvvtjuvPNOdzv//PPtiCOO2P09t4suusgNkg9XyoiLSCCUET/0VapUyY4//ng75ZRT7LjjjnOZYzpgglY6T7Y3bdrUihcv7v1E9KBkhsCDDv6uu+6y3r1755l1JnPIVHm1atXspZdesl69erkbyCYmJSW5wOHvQDawbNmyLotYvnx5b6sURgc6I05WmH23Vq1aLhjmxnNv3LjRTjrpJJct9reTheZfstbIyclxM0PUgTMjdN9997nnady4sTVr1syVcTEAb9mypZ177rmujT/yyCNd5jzcN998407qZB/n9RDAc0wR4Ldq1cp9z41BMv1Fhw4dlBGPVnzoFPGzA/GhqZ4uf3jfOAiY9gm/kQEiWxSNaAB4ffwr0YF9xa+x5Tj8uz4bjms+e2qSc9caSvRifyA4p63Jjc+S/Yd2h/abfYh9iVvux2dlZbn7aeO5n+fc177Gc/MzBAX+IAHsS/xu/3u+5jXwO3Jjep3MXvXq1f/yOwlWTj31VJcwAu0pmX9em//7+P1sp+Nn3yXjzjb+Vn4n3/M1j/Hx/P5jq1SpYu3bt//L72C7/zv42fC6dn4P7xv38T7xt/9dx6NEjs+N/YPPOYh4hX2IEiz2LfZj/0aAn5CQYEcdddRftnfu3Nlt90+W5Fih3MSfqWEfe+CBB+z666+3f/7zn66mm5ITAvUbbrjBrrjiCjfYzcvMmTPthRdesJtuusndGOxSMuN/z61///7/k5E/nMSEDuz/tgBRgg+XD4bRD9MUsbGx3j3/xcvmw+dG40hd4rBhw9yH+sYbb1iTJk28R8qekBHiRAkOqnCMDjkQef+pfSQrEw38DoqTNi6//HJliKIENawPP/ywCxoITI4++miXWWQmi9ue9p+nn37a7YMc43vKcvjHODeObUoEqD8ki/Hvf//be5REAwJAMuHUcr7zzjtWu3Ztt51jlhIO/qVT9mc4CSCvvPJKu/baa93nStBIW06QSZvftWtXu/HGG10bRHtPBu65555zpSAEBaeffrrb3/ZUO80+M2bMGPvggw9cRq106dLu8Zdccol7jttvv909J3iOE0880S644AK3b4VjWp2M+A8//GBnnnmme73M4PAaw2dr+fvph+h/aFP5fbfccou1bdvWfT9gwACXfWdfZ6qfQOy0006zn376yf1d/qwBATrlAMw20MZ9//33dswxx1ifPn1coD948GD75JNP3HvVokULN/PA7+A4I1ihZpfn57VR6/vYY49Z5cqVo6YdF3P7EJ9Vx44d3X7HrJG/P4XvU+E4D2PEiBFuZobjZn+QDR46dKgbrPk4xhggMANENjr36yDz3bdvXzv55JPdsfDkk0+6OnIy5eyT7MsE4eyr7LMc88cee6w7ZiiBIT5jWzgej0svvdRlzEF9+CuvvOJen4/a87vvvtu9bz179vS2Ro7BMMcTA4Ru3brtzvQH5ZDNiLMD0Bj94x//cI3Qeeed5xp/diJlxPOHRv2zzz5zByVTtHSg3PieDpPaLDIr0YJsD7WZfO506hI9qP8j+0GtH43vZZdd5oKB8IY+EkxHPvroo678gQ6LSjpqZsnoyKHBP5mRunE6aDAA4zhm/2AAR8b5l19+scTERLv66qtd50hwzgAPZKpp68lKE0Az3U1bRQCwJ2TkyMIRgJJV6969u3tOBnD8ToJ8OnVuTK2zz/L8uRH4cD9tIoNOym0IhEaPHv2XFWGYTn/22WddBvGRRx5x0/D33nuvSyzR1nKMMCggkcAggVIeAjDKMGnX/H6L10i2MT4+3gUM/Bz7O20eq0sQtDNIufnmm12GkufjtdBWE+hQ38vfS4aSk0nvuOOOw3a1iUMV+w2DRPZv2jXat379+rlj4GCgjKRTp05uH/VvfnkV+yGDyvD7uJGcYyDJIJYBJwNBSk5k/x1SgTiZCTp7GkwaO7INNDycPENDRYaFBk7yj4OOhoDpIDI23AigyLKQefz666+9R0YHPl9ecxRO5BRqfC4cf3QwHI8sgUWgQPDDvkQAwnYGU3vDcUzd4L/+9S8X0POzZFkJcsiYEtDkVT4g0YtAmNpROnEGVmA/YdmzLl26uLpUjmcCAYJcgnDqtXv06OFWWvAfS1aZr5kZIRHD19STMo2dF/oGAg6CdvbDCy+80P1LFpxgwj83gRtfE5zntbILmUFqWMmWk+y5//77Xfb6iSeecME52UFqd8lss/9SNsX+SqDCa2SlFU5kI9NNMM1MI8/B6+J3M3vL8/rJhV9//dW9FuprwbHF+8P9tM+8P2effbb7l4EvWXGyqQTvBOS8XgJvBiK8t/y9ZF8J6iU68HnSjtGekYXmM3/55ZddZpignAA990DvQCLjze9i/+VGIrNOnTq7Z8d5bRxjZIz9x3Bjn6RMin2XgTGDVHCMMwP05ptvurjstddecwNvjkEGghy/e0Kmn+OB44sbAxICff97bgwq6T8OV1FdmsIUNzdGiWQi2M7OQYPGiC2vTp3pPDruA1HQfzBRDsJOTcN5sNAAMJ3EaJfarvCzkgmG3n//fTdNy9RmkGis6ISoaWNwQAPAYKFevXreIw5tdN5+rd2hiM+EDGBeq0cQIHBCEFPsBDMEZATYTMn6U48EY+yLNMh0SGQAyZCyLa9BF8/DQJzMqOzC+0z7wTGyp6ntv9ueSlPAPk4GnIw4U8y03ZSIsI3j+NZbb929jTafz50Al+Dk8ccfd1le6k6ZFvenkfl9BKwELpwglhuBBsEBGXYyz6Bsg2CWwIMEBFPgYMqd/SovtD9km/2/h99LJp9A6eOPP3Z1trShZOc5FniNPvqqdu3auSCH94TjgGw1/RTIaBOoE3zw8wTMBDEMGJjSpxSBv5uBCccJAxXqZcmIMxjgfeX18DXPw/tFO+6/HwRUHEtk8CkhONhLSDKIoNSI274G4YUJgSclGH7NtY+AlrIr9kVulBYx4097yWfJ4OpAlKaEo70lYOb1sC8xkDzrrLPcNkq5rrvuuv8pAyXpwsCPxCiDZdpy+jD2Px7LMUN/wGtn5seP3W677TbvGXahNIVjiWy7f3z5JYgE9D6SsLweZpgOx9KUqA3En3rqKdeI0pCRXWBnYSfZ18GcVDzJTj71ZCtX/tBahYGDj1EmdVJ0qgfD3gJxSlYY3dKBcUCQMSc7yZWyyLCQxaGzIBPEAcxImsEEHQCdqY/OlA6Lg5vOghE1HQqNCQcDP89omUCbXZFAjRUJ/IOShofOjs6EQQoZLhb8p+aMDpzpPZ6fg5mpXDobOkJqPilTYik1fh/7lH+CHyek0Dhw8NFB8Pt5HaBjp/aU5+b5WBuV4IEl2vhcuP+cc85xDeSBCHjIeJDRo0E7VBGkkA3kM9oXPsOqVau6z4QMN/sMpQvUANKg83nsK+PNfsRAm1pE2YUAiwD2jDPOCGwFANrnPQXioC1gcM8KIAQcDLoIivn8KROh82a2k6CD56KmlCCUwJOAlOd8/vnnd2fhWEqQn2HlA9qN3MiAMzAhyPYDUwIGXsPll1/uAvj8BOK0DfxeOm3aL799JmgmgOb104aSvKDEhNfrI4lEm0F7xO+lfeJv9RGochz4tef0dfRxnDfB50k7Fx6I07Y9+OCDro1k7WWOOUq1eH6+pkyFtjm8DabskJ9jMPB3rXe+J7Tx1LsTtDG4kl1Gfj/SFi5aaJlZe39PiAvol9lv6Ps4zhnYHahAnDXD6XsIftnf6NcYEFKKxWwTA2WCaT95En4+BscF+xvtNkEyKGvlWKU/JyCnL2XAS3zAttxtAsdh/fr13eP845o+nXPX2G987D+UlJGVVyB+kBA0cXIMHxrTIDRuXHCBoIiRUe5RZLhyZcvtWkqndi1vy6GBxt2f9jlYGS0/EOcgZxrYz8b75QEcYGSfCVwJPnkMjT0HKwMGGlY6DjpVnoOTj/jsCNAJCOgo+Rx5Xg42DkY6L36WDpev6Qj5PPnb6YDI6viZHzooMt9MSbGNA5n7aSDopBmV+wEsgTOBNvsHX1911VUuO8XBRiPCjYaBoJfOj46NbD8X82D0TWBOh0ojwGdAxoxAnI6QIJypa/5eBiE87p577jkgAQ9/A4NMXuuhis+cTAh/x56wf1N6QMDE4I5/ea9pfpgmpWGksWU6k3/3FtTTaPJ50ojKLry/dGQcRwc72PLtKxBnYEwgTFaaIJI2gA6Y44zglMEYyQjaDgbWlDORiOGkXo4PMslk52iHaCt4Lv7lOfIKxGlbaC/ouAmUaZ9oT2hX6CNI9OQnEGf/5vHsd2TZqSPnPWb/pX0ggKE9oc3kb2Mqnm20b7wftF20f3kF4qANIMigvSWLeM0117h2mdcTHojzd/PcDESZVaCshb+P9otVLRicMrChXSd5woCH9o5kBI8nQD/YsyUMqqmB5z3fVxKtMHnx+RdtwsQJlpa+5/X1GUSyX9M+8tnxXtK/0X7ubyDOIJi2lsQa+wt9MscRiRBmwEmEcoIvJYYM5Oi72Z/YBymtoi/NKxBnn+dkZfpVBn4MLokH8kK/ykwYxzz7N/s1CuPJmofEqikEWGyjg+Zf/0aARuMfjkaSII26Odk7PxBnF6DTZPQNRt00mhx4BKTUOrLT0olw0DCNxNQqnxE1nzQMZJw4COmEOUgJkDmgOdDpPOkoaIzJXhPAcuBRbkQHyIFAVovXQfabjCkHHB03HRtlCHSA/DwnQ7GNBoKRN//yOvl5/h4afbLMjKbp1GgEqDGjY6Iz5PF0mDQ8NHBkr2jk6OAoofCzWoziCfjpBGkgyJ5x8DLwIMtFdo/Ax8+OFWZ8jnQMHJ/hGLAwKGLAw3vPYIZggRsNHyed8VlxjDP4oZMhM8OxTSPP8/Evn3t4No2sDJ8pPy/Rg3aCTpj9gc+GzzQcnyHHP/X/7BvMRBFsMpAnOCXRwn7C/kEygM6fY5/On6/pnNlHCBAYvNMv+EEwbU5uHMe0JwQXBN3+jCpBOT/DwJ7ZNZCZI/DJC7+H451sH20T7QQBLe0T7SBtI+0Jr3/w4MHutZK9ZKaI30nbxT5LkMyxQJIgHIkB2hraSVB77s/20B4xeKAdo62mdtafVWAAQzBDQM59vG+0TfwMJ73yPtEG8jWZRBIoEh2YsWDWmWPGx+COz5JjgD7JbyvpXzmW2L8O1KopDG4JxtlHiLO48TuYXaHfJoFGn87rIzCmX6c9ZiaGmICfyysQZwabPpPHEk8QM5CAIS7jdfNzHIvg2PPPJaJ/9YUH4sQEDMLpE5ihp7TlcAzED4kL+pA94WuCLaZl+GAJHPlwmbahQeKN5Ub2lSlJvwZP9ozOjM6Q94yDjilUOjQaAmoQyRJz8JCVotGgsefkIDoV3nMCYjJX/DydFZ0OHSwHG50do2o+I7LbPDcHIKNkPjsOMEbkHIh0YnzmBNIcEDyWz5hOhCwrP+9noQjiyQAxIGDARWdHR8MUNUEdr4vPnoaFjpaMEisnsB9xH4M3GjR+hr+V5+JvIvNAQEBnRWfJfkWDwGtk/yMbQQfLc/A9HSN/d1D1uNGEz4jPkf2EjoQggc+UBo4sCw0eJ5cxxcnnyMCG9y38gj58ZvwsnwOfHcc6+wqfB8EP+xX7DMc4+wA/Q5Am0YPPh+OEz4vPJ3zGiM+N45M6UQZbtDe0JxxzIHjk8bTzPA/JAKbC6fh5DJ06wQnZY45DHkNCgHaK9iIvBNa0X7wm2gKOV7LT3DiOeQ4Cc37en/bPC6+LNov2i9/PPkvwzL5K28TfyutjUMHz8Ltoy/gd1NhyLBC8M2hnn+Y1hePvY/+nDeUY4fF+YMDv4Wc5pnhvOB5oB2l3eT85nmhreT/5+/zjiPaU10E7RuDEzylpED3oT5kx5rOnv2QfYpaPNo02k8+MASj9IJ8n+yaJLoJfPuf9vaAP/SD7BANSjjN/NojBJTM9/G6/nyeY9uMDBgUcC+yD7OME3hzTPJav6TPZjwmsOV65j+QVfS4DY/oIEmDEHpS7cjzwd4eXxdKfkAHnfWD/pzyGeJAZLZ6X/nl/cdwzsKaf4fnC26ogHBIZ8T01IDREfLhkXfmwGZmxYzOaYueRvfMz4jTkuWvEwzG6JatDtosGg4MQjE4JvqlvZOTOzk1JAQcfHRCfHR0D2S6Ce3Cgc6DS+HByHjWWlDXQEBCc+VkkPj+yUGR4yBTR6RJsc6BTFsIInNdDh8Tv8hsmnpsMGCdQ+aU1PNY/eAm8OQDp2MimMVggQ0djBF4/+x8NBJkoGiU6bjLkIKAge6VA/L8YrHCWPwESDTaBBJ8Hn/neGrj8rCMO9gkaefYXgjiypWQMOXFHDg0EEWS2KJUgi0sG2j/m4J+syXkoJFtEDmcsDUx9NkE2wS39G23mngaVOJDriO8JbTklYZSBEajvDSsBkQyjP2SwSL/PzzA4JsBlMEl/zywYz8vAkAQYsR39NOuQ03fzWL8sBfTbzPxQuuYHzAxaGIyQ0MmrDK2g6MejKSN+SEcRfKh0/Ez1vfrqq64ukR2I0Zn8/cg4ERSRfSHgIihlxE5NGWhYmErmYCTo50DloGJKigCMjDSZJIIrfp5MMyNngm1G7NxPNos6SA56nodA2i9TIFj3M2Q8D89Bh8+Si2zbF7Ks/A4Oekbq3DjpkHpNzkmgUWEfYyTO4IPXx99L2Q3BPqN12XWCK2e/c4INU5pMu3JcHqgsA4M2MqNM3jE9yQotNPZy6GCKm+Oc45pBbHgQDo5lypg4xkQOd5RXUAJCaQdJDE6m3VsQfrCQECFxtq8gHCTZmJlm9SpKTCnzZDUY2mY/sGWGiBln+gUSpP7VNZldYklCkmHhQTh4DQThIAlLGSJtPs99IILwaHRIlKbkJ+tIJpwPlwY99wcreSPDTEkBHSBTogSdeSGIJgBmGpbA1f88eJ85eZGRPQE3wSs1ZmREyUhz0PBzBMcExtxHoM0ImKkvPjNmNCgfIaBmOoogns+cjpoDnSCYrDRBPDVtjK75OabumLZjNM7vJ8vG7yeoJrtOpp/9iKw6GXu/Lo1gnsECgzXq1gnqqUXjOXkuXgsZB7LgPD8Zd34nP8PavEyh81gydwT/Yi4bwgwCA7OCTH+Hl6aQGcoP9jlKH2gb5NBBu8EFRMiAkQHMjTaDTnlPs3IihxPaS9qwgsQqB7I0ZU8oRfH7yn0hDqAPJOjmRvywt1iNvoHkl48Md35iu79DtJWmHDaBuBQcVUkEwJzYSt0XB2FeyPzyWEa6HHgEoiBgZeDDfZQOMN3E1JE/muXAZMqNAJYsN58rI39WYGHH92s2+ZcTvAiSCfZZNYHaRxoERtQcwATh/G6mkgjE6LQJpnl+GjPuJ1inhISSGfYZfj+Bnv8YcACynYPPP9eAAJIpNv4GAgJmVShd4XFkdtkPmVYno8eAhRNG91RPKvkXSSAuIlIYHYxAvLCItkD8kK4Rl/3DR08gRNDKe+wH2LnxOAJ2AvXcjyFIp3yEGwhQw4NU7ud3cD8/S4kH9/vP478G/+e5n5s/+Ap/fv/n2ea/Fn6e+3gOcL8/oMjrdfOzHIT+c4X/PF/zPvB4//ezjcdzPz/LzygTfmDkt0ZcRKSwOxg14oWFasQlahCMEnQSXPqBal64LzwTHo6Alecge8wtd6aY+/lZaj+5Pzwohv8a/J8PD4IR/vxktXn+8NfCv2wL/3kf9+V+3Twfj+dvRvjP8xoZGYf/fu7nsfxu7lcQLiIiIgeKAnERERERkQAoEBcRkUKDE7tZZYsLj/hYyYnzQDiBPTdONOccElbsodRNpLBi/W9WMaNExsdyw6yKwjlefolpOGrbWTed5YAlbwrERUSkUGAFKAIJlo1jqVIfqzWxglNegTbnMRCkc00DzhcB9bqsqCRSGHBcsIIZq4ZxtVoWLvARnHOtDq734B8f4fwL/3ANAXCuFYs3sBSw7KJAXERECgUuDEJ2m3XNucCIj6w3AQVBQm6cG8JyrKzo5J9bwrUKyKyLFAYMOrkoDwNW/vUXRwDHDCuiEayzuEFuLEnK1TNZLhg8ntmo/Fzro7BQIC4iIoc9LgrGsrhcuKtly5be1r9iCVSu7Edg4WPtY67kyuXHCTS4+i7XPODaCTyOjLnI4Y6FClhVLK/Bqo/yFI4fylV8/jU7uDYIq5Vw/BHMc6z5AXxhp0BcDio6Mf/CO1OmTHHTXT6yVayTmteUFQc/65TzM3nVoYmI7AmdPW0OQQLXQ2Dt4Ny4OBmZ7oEDB9pXX33lLj5GzTiZcr7m4mQsrfv999+7oJ7yFL+kReRwxrU0CKa5SF9ea24zQCW4pkSF44cSFq4fwnFHv01pChf0o4/nPrLhlIhxTKnES4G4HEQE4dSGcaIU68Q///zz7qqWdHYcyFwinYOYkzty44Cmo3zwwQddxwiej2xUXtNhIiI+ggICBbJzlJjkZfjw4e7CYMuXL3ft0muvveYCb9oZrrjLJboJyLn4GG0UCQWCcYJykcKMRNmHH37o+miOH05spvyEWSNugwcPtvfee89dvZoLuZEV54rYJNY4vgo7BeJy0BCEc7BSZ3nNNde40XW/fv3cwctJHpzswUGZV8abYJvtTG35yEbNnj37L9tERMIx0P/yyy9dgNCqVSt3bQAG9rQnZOb8gfxxxx3n2qM33njDrrvuOldH/sUXX7j7wLR879697bnnnnMXm7vllltcMoGr+YoUZlx74/TTT3dXneb44SJtZL+ZhfJxBesLL7zQJeK4gNtjjz3mVlvhyt6FnQJxOWgoOylbtqw7GE844QR34JYvX95NVeU++YPAPLwWjQvqdOrUyU1lUbNJ58lBzpnY4Z2piEg46sJZ9YTAmozcRx995Gq8OdmSrDdBOQjSObEMXL2QtkrZbpF9Y3BL/8yF8UCgTXAeXnoqe6ZAXA6ac845x+6991476qijvC27RtJcXjb86pdMBzMVPHr06L+cWU2wzrJJBOk8hlpypojZpjozEckLM2bUtRIUjBw50g3gOamMAJwAPa8l10REDhYF4nLQcMJHzZo1XY33mDFj3BRW9erV7YILLth96Xi2P/XUUy5TxdTVv/71L1eTyfQyNWU33nijm/JiSphOlLWAX3zxRXeSSPhKByIiIFP3+OOPu7K4AQMG2JNPPulm5OrXr++m0v2Tz2hPqF0FA3zWP65SpYr7XkT2jBlpar/9FYSY/WZGmxlv2beoDMTJkHKGbpMmTVzGVA4P1IZzY+UCpocJrJn+Dc+IJycn21VXXeWC8SuvvNJlrVjBgIOag5w68nLlytlNN91kTZs2tW7durlazVNPPdX9rBw6+PzatWu3uxxA5O/AOuCVKlVyiQBuBNdJSUkWHx/vvvb7GFZx6N+/vxv8v//+++7nqAnPC20NQf19993nTuKcMGGCd4/I34NyKWaTKfuINvTPnE/BORYcPyTGGjVq5JYszAv14o8++qg9/PDD7sROkmsHE+d7MBgnxsxrFZiDLfahEO/rqEEDWblyZXfzM6Vy+IiLi3OZcLLjLGnE581BywlVrGpA59e6dWsXcFOjSeDOBTXIeFNPfu2117qfJxtOVos1fulQObjk0EFjzOfIQEwDbjlYSAbQthDQ0O6AtoPMOeefUALHfawbzolk9EHsq/Xq1bNmzZq5xxIUkTzgsQT3DCrZj0X+LgSMJC0YVHLOVBDou1n6s02bNq7t9jFo7d69++7zu9q2betOYqZ/9l83xxTfc9xwLDEzTiadY5DtPMfBwmvgGObG6wsvjQ1CTOiN0Flu8rfjKnYsVUQmyq8RZ8WTSy+91B3YXHKalQoIxMmEH3HEEe7kqkGDBrm6TpYtZBmkf/7zny77RKdHmQoX5iBwV1ZVRPKDYIGZNm7+LBplKAQ3DPY5L4X2hbaIJAFdJI+lPI7H+5025SuskcysHo9VIkAOdwTPnHPBceGfmMnxxPHDIJZjgsfQHzN4JXD3jzdWKaL/9y1atMjNcpNw5bGFORmjNJQcFByI1JCNGDHCBdQ+/yD10RH664TzNVff4qDfU9kJGSld4EdE8osOnyxYeJtCME0gTpaP7Db/0u6AwJuseHgJHcim8VjNxklhwTFSunTp3UE4OJ6oBecYIanGMcHAlCDcv5/jLTwIR506ddxjmZ0q7DOiCsTloODAZcRMFpz6cFZFocyEaawePXrsPmgZJZMB5+p1PIYVUVhvPK9pX0bRrJ5CiQprlPNYERERkUNFVNaIy+GHQJtRLxfsIWDmCnZLly51J+v17dvXjZYJ0qnfZOUCAmzOvK5ataqdffbZbqqL5QpZ+5dSFLJVTJFxMSBO9OBiHQT7nHwhIiIicihQjbgcVNSKEzhzyWlO1uQEKR8rojD1tXbtWhdgE5xzshTTxqAEZeHChe5ED38qmO+5OEfux4qIiIhEOwXiIiIiIiIBUI24iIiIiEgAFIiLiIiIiARAgbiIiIiISAAUiIuIiIiIBECBuIiIiIhIABSIi4iIiIgEQIG4iIiIiEgAFIiLiIiIiARAgbiIiIiISAAUiIuIiIiIBECBuIiIiIhIABSIi4iIiIgEQIG4iIiIiEgAFIiLiIiIiARAgbiIiIiISAAUiIuIiIiIBECBuIiIiIhIABSIi4iIiIgEQIG4iIiIiEgAFIiLiIiIiARAgbiIiIiISAAUiIuIiIiIBECBuIiIiIhIABSIi4iIiIgEQIG4iIiIiEgAFIiLiIiIiARAgbiIiIiISAAUiIuIiIiIBECBuIiIiIhIABSIi4iIiIgEQIG4iIiIiEgAFIiLiIiIiARAgbiIiIiISAAUiIuIiIiIBECBuIiIiIhIABSIi4iIiIgEQIG4iIiIiEgAFIiLiIiIiARAgbiIiIiISAAUiIuIiIiIBECBuIiIiIhIABSIi4iIiIgEQIG4iIiIiEgAFIiLiIiIiARAgbhELCcnx3bu3Ol9JyIiIiIFoUBcIjZjxgxbsmSJ952IiIiIFIQCcdmrZcuW2fvvv2+//fabt8Vsx44dtnDhQhs9erS9/PLLNmLECO8eEREREcmvmJ2HcW0BweO8efMsMzPTfR8XF2eVK1e2Fi1aWNmyZd22cKmpqTZr1iybPXu2+z4pKcm6dOmS52N927Zts1WrVnnf7RnBa/Hixa1hw4belmCtXbvW3nvvPatSpYqdffbZVqxYMe+ev5o4caI9++yzds8991irVq3cNoJwgnPey82bN1vJkiXt1FNPtVq1arn7RURERGTfDutA/M0337Rhw4ZZdna2C4KLFCniAk4C7LPOOss6duxoCQkJ7rGLFy+24cOH24QJE6xo0aJWunRpW7lypZUvX94uvfRSF4QSyOc2fvx4e/XVV73v9mzLli1Wp04du/766wMJxikjGTlypJUrV84uvvhiF0zfcsstdvTRR9vNN99siYmJ3iP/iqx3v3797LnnnrNmzZq5bQw+fv75Z5s8ebLVq1fP2rdv7wJ6AnIRERERyZ/DujRl48aN7mTCdu3a2fnnn2/nnnuude/e3d332GOPuUCSTDXGjRtnv/zyi1WqVMlliHv37m09e/Z0QecHH3zgsuV5IQDt0aPHXm8EqpzYSKY9PT3d+8m8kcUfNGiQ/frrr96WA4MM+KRJk2z69Onue15PSkqK+7qgCLiPPfZY914ymGFgoSBcREREpGAO+xrxChUquGCxT58+7kYmnKCcchKy5ZRWgBIWgm2CZgLwrl27uoCcbDglGGTT81K7dm276KKL9no7/vjj3ePIru+tzIV67G+++cbGjh27e4AQDbKysmz9+vXed7uUKlXKjjnmGKtfv763RUREREQKotCdrElpSuvWrV1Gl4z41q1b3XaC7fj4ePvjjz9cXTSBJ+UaBOSUcuypdCM/WFlk9erVLhCn5CUvc+bMsU8//dQNENq0aWNNmjRxATADBV5LQW9kvA+UTZs22cCBA93txx9/tDVr1rjXJiIiIiKRi30oxPv6sEOpCeUp1DZTy+wjSKX+m/tPO+00q1ixoqsbJyM+c+ZMFxQToHOSJ5nw6tWr7zEjvi+UohC8UnLCSaInnHCCd88u3E/Jyscff+x+d+fOnd2Jj9Ryb9iwwUaNGmVTp051r6kgtxo1auyui8eiRYtcWUqZMmXca+B9+frrr13dOrMAfv07fzODBjLyvCcMIj777DMX3E+bNs3dGBxQ1kIwTo29X2cvIiIiIvlX6DLiIDilZCU8uG7cuLFde+21duWVV7rsNyduPvPMMy5AJkvur7xSUJS88PPUkpOF9zEYILPMyaEvvviiK5Oh1MMPwsEJngwWvvvuuwLfVqxY8ZesdVpamsXExOyzlvvPP/+0IUOGuJp5HwOVO++808455xwXnA8YMMAefPBBe/31123u3Lneo0RERESkIAplIM4qKgSQ4QvGkA0nMKcU5emnn3bBMSUsZIOvvvpqd7JjQRaY4bFknT/88EN34uVRRx3lAnF+NyeAkml+99137V//+pfLipNVpjwmvIac+mtWK/nkk08KfKO8xc9UE/QTYK9bt85lxPPC6yIDz5KGrAsefiInz3PEEUfYDTfcYB999JF7Tfw9y5cvz9fSjSIiIiLyvwplIE52m8CUoNcvyfjhhx9c9pnMMapVq+aW93v88cddQE25R35PoCSopa6aqh9WXDnyyCPt5JNPdvexfejQoe4kUIJaTh4lsG3atKm7/+/A7yT7zoowLVu29Lb+F5lzAur77rvPvv/+ezvjjDPciap70q1bN3vppZfs7bffdieiioiIiEjBFbpAnMz3mDFj3BKBJ5100u4yEJb2Gzx4sKuB3l9fffWVW5mFoPbMM8905S7UYoPsMiuoUILC6ijXXXfdXldSORB4PZyA2qhRI5fJzu3LL7+0yy+/3P3td911l1144YX5qvtOTk7er5NYRURERAqzw/qCPk888YQLulmBhDIPst2ctMiJk9Q9c8VITsSMjY11QfMrr7ziTtI87rjjXA05NdrUipcoUcJlfykdoc46N8o4qAMnq87JlWTP+X2XXHKJe66qVau6FVlAmQilKNzCV1AhWD/llFNcNvpAIrimnpvXfeONN+7OYC9YsMAuu+wyl+XnAkaUnlxxxRWupIXg2v8787qgj4iIiIjsv8N61RT/gj5kdylHIfhlJRHqwMkAc0l2glAQeFOOQqnK0qVLd1/mnrISaqNr1qzpAva8bN++3WWcqQdneUSy4VdddZVbv5yAP/yKnAS4fJ/7kvJkpbkwDoOGA4WBB7XulJ1QakJJiZ/p5v2gZpyyFP6+008/3f3u8CAc1LITjDN7wN8iIiIiIgfGYZ0RJ9BkqT1qtn0E05ywyJreuZHZ9tfh9pfv43FkzfcmIyPDrVIyf/58tyoJpScE9n6Qnx9/R0acv5ssPX9z8+bNXY24j9fMgIOsPyUrZP3zyvZzkSFKaHr16uVKUURERETkwDisA/FDCWuNE8DXrVvX23JgMLggA++XxhQUATvPsafVVkREREQkMgrERUREREQCUCiXLxQRERERCZoCcRERERGRACgQFxEREREJgAJxEREREZEAKBAXEREREQmAAnERERERkQAoEBcRERERCYACcRERERGRACgQFxEREREJgAJxEREREZEAKBAXEREREQmAAnERERERkQDE7Azxvo4aGRkZtmbNWlu8aLG3RfZHdna2xcTEWJEiGnftl9CRkp2TbTt35ljRonHeRolUTui95D2NKRIb2j+9jRKRnJydoeM8y+LYL/Ve7pddx7hZbEyR0L6pN3N/ZWVnWlyc2sv9RaiWk5OjvvwAYZ9s2rSplShRwr2nQYrKQHxtKAj/ZPBQ+3zQN5ZUvJQ66f20dPWfVjwh0SqUqeJtkUhkZKbbmi0rLCc7w2pUaKjGcD+t3rDUdS5lkytbQnyCt1UKis55W+qW0HG+0JrUaWlFY4t690gkVm9cYRkZaaH9sqIlJZb0tkoksnOybM6yqdaqVUuLj4/3tkokNm7caJs2bbKkpCSrVKmSt1UiQb/De9mvXz9r1qxZ4PtmVAbic+fMs8cefNoStle1Dk27W5EYBTz7481hj1iNivWtZ7sLvC0SiTVbV9qnU96x2CIZdtkx91p80WLePRKJT0a/almhIPK4lmdY5TLVvK1SUGmZafbHkl/tnW8esyev+shKFi/l3SOR+Hr8AFu7eZUd07yXNaze3NsqkUhJ22Y3vXKKfTJksILH/TRy5EgbO3asCxz79OnjbZVIZGZm2j333GM333yznXjiiVaqVLBtZtQG4v37vWC1EzpYr6POtyJFYr17JBL3v3tJqENpYRd3v93bIpFYvm6hvfFVP4uxHLv3otesWHyid49E4rmhd1pWVqad2/U6q1mpgbdVCmpHeopNnvujPTzgShv60CwrnVTeu0ci8fawR235+kXWu9Pl1rp+J2+rRGJr6ibrfkdlW/DnfKtZs6a3VSIxaNAgGzZsmHXs2NH69u3rbZVIpKenu8HMFVdcYd26dQs8EFeqWUREREQkAArERWSfcrybiIiIHDgKxEVkn2godM60iIjIgaVAXETyRYG4iIjIgaVAXEREREQkAArERUREREQCoEBcRERERCQACsRFRERERAKgQFxEREREJAAKxEVEREREAqBAPALZOdmWkZVu6Zk7Qrc0y8zKsJ07dbmT/bEz9J/ex/2TE3rveA/9/TIrO/R+hv6TyGRlZ7r3kfeT4533V/YPbaffZkrBsQ/6+2T4jX11504d6wWVkxN6P9PTbceOHZaWFtovMzO9eyS/2O94D3n/eB/Db7yf2i/3TYF4BEZN+9LufetCu+TxDvaPp7vaU4NvsT9Xz/fulUhsSlltL3x2ly1aPcfbIgU1e9Gv9vTAW9x+ee1z3e31rx+yLalrvHulINIyUu3Nr/5tVz3V1b2fD7xzuf2xcJJ3r0QiPSvFfpn5VajNPM6e+eRWb6vkF4PB3xdOtiuf6uL2yfDbW8Met9WbVnqPlPyaMGGCXXvttdahQwfr3r27PfPMMwocC2jTpk122WWXWadOndz7GH575JFHbPny5d4jZU8UiBfQ6BnDbPDPr1hGdob16XKdHdfmLFuwYrq9O/xR7xGSX9k5mbZ2yxIbOeVTe2bQ7TZ/+XTX2UjBbU/fZF9Pft9mL/vNOrc83e2X0xaMs/4f3eY9QvJrS8pG+2T0GzZ6+lfW8+iL7Lzjb7Id6dtt4E8v25S5P3uPkoKav2ymfTX2P7Zk7VzbsFUDxAILxYfMKKSlp9gF3W63a09/fPftxHbnWoVSlbwHSn4QhH/wwQeWmppqN910k5122mn25Zdf2ocffuiyuZI/SUlJduONN9qjjz5qjz/+uLvxfdmyZW3NmjUa2OSDAvECmjLnJ4sJ/Xdcq9PtxLZn2kntzrae7c+zVRsW26RZP2qnK4CMzAxbtnaxLd3wp/25YralZYQaP71/Eflt7i+2fO0iO7pJNzu7yz/s2GY9rU39zjZryRRbtGZB6G1VWUV+bd+xxUZN/dwa1WhtXVqeYse3Ps3aN+vuAvSVoeNcCm7D1tU2Y+FEW7x6riUnlrGcndnePRKJFnXbWbuGnXffalaoY0Vji3r3Sn5MnTrV1q5da926dXNBeI8ePax69eo2adIklagUQFxcnLVq1cqOPfZY69y5s7sRhJcoUcJq1KhhlSppgLgvCsQLaFvqZqtato41qNrMyiSVs0plqlvdys0sPRREzl02zXuU5Ed80QSrXamxdW5xspVMLGVFYrQ7RmrNxhWWmJBs9ao2tYqlq1mpEmWsbMkKlpmdbvFxel8LIql4aTvp6Ius97EXhd7LKqH3MtSphN7b7OxMy9SMTUTmLJ1mC1b9YfWqNbXSSeW9rVIQmdkZtnTNPCuRmGwr1i+yKfN+sul/jrPUtC0WVzTee5Tkx+bNm23+/PkWHx9vzZo1cxnw4sWL21133WWXXnqp+1ryJyYmxr1fBN7+bdGiRVa0aFGrXbu2JSQkeI+UPVEPXQDrtqyxDdvWWOlQgFMmuaLbViQm1orFJVpsaKf7M9TR6OS4/IuNLWrlkitZnUqNrHhCojugJTKtGnSyMztfbc3rtnffb9q+3haunm3VytexciUr6b0tgKTiyXZC6zOsaa12lpG9w6YvmmjjZ37rAvLq5et6j5L84ryP3xeOsxLFStqxzU9W0BghylLWb11h6zavsB9+/cRmLf3VfvhtiA0Z/YbNXvqb9yjJj+3bt1tWVpZt27bNfvjhB+vfv7+98sorLhvepk0bl+WVyKSkpNjSpUutatWq1qhRI2+r7I0C8QLYkrLZZcSLhjqS+Lj/jpiLFIl104Ibt6/1togcXA2qNbejGh8XCrxr28r1i+2nqZ/ZghUzrEuL00IDxRKhRygQz6/Y0PFctmT50PuWZHOWTbfhEz90gU69ak2sdhV1LAWRkbXDflsw2jZtW2et63WymhXre/dIJGJiioQGNMlWv1pTa1W3g1UpV9umLRhrE2b/YNt2bPUeJfuSnZ3tAnFKUzjZsE6dOi6TS304deKsACKRmTdvnq1evdrq1atnDRo08LbK3igQFzmMrN+yykZN/9J++eMbV/bTteVp3j0SiZidsVa5dHWrXbmxZeZk2va0zd49kh9zl0+zmYsmWWJCSatWocHuYJFl4zZu26BzagqAUr5mtdrZucfdYGccc5V1OOJE63nU+VahdFVbtGqOrdD5CwVCOUpiYqKdcMIJ7uTCCy64wJ24OWDAAJ2suR/Gjx/v3seaNWtamTJlvK2yNwrEC6BEsaRQh5JkGVm71nH1cSIc04Yli2unk+BsTdlkY/8YEQrCh1vlsjXs7M7XhoKfOt69kh+s05ySvtWWrltg6Vk7rHWDjnbZSXfaiUeea3OW/G5T5491q/1I/kyc9aMLErekbrKpC8bZ5DmjbEvKBlu3ZaWNnPqZq3uW/ImPS7CmtdvZqR0vcQMbMANWtVwtt9zmRq1EU2CcTHjEEUdYkSJFrFixYi4rTpacgaJEZvr06e4ETU58lfxRIF4AVcpWc40eDd66zbvWbOVCCgRAqTu2W/2qzVUAIIGgI540+0f7fsonLnPW59irrUntNt69kl8E2as2LbTPfnnbVm9aHOqQd63uUbdqM1cWsH7bSkvLTHHbZN9IXFQoVTXUPm6xX+f+YDMXTbC1m5a7VaZ+nTvStZ+SP6wqNXHOTzZ3+W/uJOxd21JtR3qKFYtPtJLFS7ltsm+cQOifkJmRocHggbJx40ZX6tOiRQurW1fn0+SXAvECKleqim3YusqWrJnj6sVXb1xqM0KdC7WQ9ao0DT1CobgcfPOWT7cvxr1tm1M2WNeWp1vjGq3c/rktFABxJT7JH5YmdQHPzO/tt7kTQu/hFktN227zl0+znTk5lly8jAvIJX8uOOEm63/N4N23f/Z5zBpUb2mt6h9jT/zjYxeoS/6kpG2xL8e+ZQO+ed6tkkQQPmfpVFu6dr5VLlfF6lXT+Qv5VblyZXciIZlvVk/hBENO3CQoL1mypE5uj9B3333nAvH69etbxYq7FrSQfVOPUkDHNOvlOushP79hn4x63V1lc+Kckda2YRfr3OpkHcARigntirveO71/keDiM2s3rwx1yDVtzebl9tFPL7nb0DFvuvWb/cyu7F3R2HirULKGVa1Q297/9kkb9ftX9v3kITZi4keWlZNh1crVs8T4ZO/REgmOc453KZgSCSXthJZn2oTZI+yzse/auD++tS/Hvccbao2qtQntl8qIF0Tjxo3deuFc1OeLL76wQYMG2YIFC1ytuJYvjMzYsWMtOTnZ3ST/1BoW0BG12tjVpzxoLet1tPGzv7XJc3+y9k162F3nv+w9QiJRqUwtq1q2riXEFfO2SEEkFitpZUqWt03b1tiUOT/uvv0272dbuHquq32W/GEd9n9d8Jo1r9PBBo58wQb88LTFFU2wy0+6245p3st7lEQiIS7RHeeVytT0tkh+FS+WZD2OPtcuCe2HE2d9Z69+cb9t3LbOzut6g3XRSdkFxkma11xzjRsYPvbYY/bTTz/ZnXfeaeecc44C8f3A+8qJmpJ/MTuj8LT1uXPmWf9+L1jthA7W66jz3fKA0YTLsKembXP/chDTuSQnlvbujT73v3uJNazewi7ufru3JfqwvBm7YskSpS0uNjrXGV6+bqG98VU/i7Ecu/ei11xdZrTYmrrJXVQq9zr27J/F40tYieLJodcdXbMNzw2907KyMu3crtdZzUrRtcwVJ2CzFntGZprbL1n7umRimagcKFIjPHnuj/bwgCtt6EOzovqCOVwQiXIfTo6L1tf59rBHbfn6Rda70+XWun4nb2t0YF+k3Iz+h310135ZOrRfRmfgSLvU/Y7KtuDP+VEZnLE6ytatW91yhbGxse5y7aVLR2dfTsZ+2LBh1rFjR+vbt6+3NbqsW7fO1d+zGg0X9IlW6enp1qdPH7viiivclVVLlQp2NkkZ8QhwMhydCJkzTkSK5iD8UFGmZAUrm1wxaoPwaMdlw1nGjH0y/Mb+mVS8VNQF4dGOOvCyJSta5bI1rUq5Wla+VBXN1hwAzCxwnOvqmpFhYE1/w6pI/90vlb2NFJlvVvioVauWW+UjWoPwQ0WFChVcWUo0B+HRSIG4iIiIiEgAFIiLiIiIiARAgbiIiIiISAAUiIuIiIiIBECBuIiIiIhIABSIi4iIiIgEQIG4iIiIiEgAFIiLiIiIiARAgbiIiIiISAAUiIuIiIiIBECBuIiIiIhIABSIi4iIiIgEQIG4iIiIiEgAYnaGeF9HjZkzZ9ndd95vqavMGlRrbjExMd49EolR076wcsmVrHnd9t4WicTW1E02Ze7Poa92WucWp1rR2KK77pCITJzzo+XkZNsRtdpaqRJlva1SUJnZmbZi/aLQcf6VnXfctVYsPtG7RyIxdf4v7lhvWKOVVSlbw9sqkUjPTLP3v3vKbrrpRitVqpS3VSIxc+ZMmzdvntWoUcOOPPJIb6tEIjs72wYPHmwPPfSQ9ezZM/B9MzoD8Vmz7K6777YdKSnWoEEDBeL7KTYmNhQ67rScnTneFpHgFSnCQCa0X4aCcTkQmODUMb6//P4mCrvGQ056erq9//77dv7551vJkiW9rSLBIhD//vvv7fHHH1cgvieM+l544QXr0KGDO4BjY2O9e0RERORQsGnTJqtcubLNnz/fatas6W0VCRYDxD59+tgVV1xh3bp1CzwQV424iIiIiEgAFIiLiIiIiARAgbiIiIiISAAUiIuIiIiIBECBuIiIiIhIABSIi4iIiIgEQIG4iIiIiEgAFIiLiIiIiARAgbiIiIjIQTRx4kQbP368bdy40duyd1zocNy4cbZs2TJvi1lGRoaNGTPGPvnkE9uyZYu3VQ41CsRFREREDqIffvjBRo8ebVu3bvW27N2ECRNs+PDhtnLlSm/LfwPxDz74wDZv3uxt/V/8jm+++cY+/vjjfN0+//xz7yflYNAl7kUkT9u3b7fZs2f/pYEvUqSIJScnW+3ata1ChQre1l1WrFhhS5cudT+HokWLWvny5a1evXqWmJjotvn+/PNP93guNYxixYpZ9erVrU6dOkaTRMcxbdo019GEi4+Pt4oVK7rfX7x4cW+riEQjXeLeLCsry2W9eS/CPfvss5aUlGRnnHHG7rY0JibGtYW536u0tDTr37+/LViwwE455RQrU6bM7u1ff/21C9Jvu+02q1KlituekJDg2kj/eWhv//nPf7r2lPbYj6lmzJjhLu/uP47XunbtWlu/fr398ssvbtvhKNouca9AXETyxHH44IMPuqnQ0qVLe1vNfX3sscfamWeeaeXKlXOdB53MRx99ZD/99JOlpKS4jgA1atSws88+2zp37uy+B53C+++/b7///rv7Wb8Jatu2rV111VVWqVIl10Fce+21VqJECdcxhaMjOeecc6xTp07eFhGJRgrEzbZt22YjR460sWPHelt2IXgmQdG4cWOXYADJCxIS119/vfveR1v8yiuv2IYNG6xu3bo2d+5ctz07O9tWrVrlEibt27e3kiVLuu1ly5a10047zU466ST3PT9/3XXX2QknnGA33XTT7sTIrbfeas2bN7fLL7/cfU8C5Pvvv7fnnntOgfhBpNIUEdkrAm6yMdzuuOMOq1atmj399NM2ZMgQy8nJcY/5+eef3bRpgwYN7N///re9+uqrLgNDR/Hmm29aZmamexzZcu7/7bff7OSTT3ady8svv2zHHXece47/+7//cz/j4zn8383t9NNPt+nTp9uLL764+zlFRKIVWWYCaGYLw2+UmKxevdqWL1++extf586cg1pyEiIkH+6991576aWXXLD8+OOPuyQHwfQDDzzgtpHEfOaZZ3YH4T4SHgwK+J38bm60x8x4+t9zn2rND77DJiPOn0EHTmAQFxfnMm0iEjk/I07we+6553pbzXUWr7/+ugu8qU8ku0KHQL1j3759rXfv3q6EBWRqCMrJvDBV+t5779m7775rN998s/Xs2XN3ecmSJUvsP//5j8uoky1ft26dy4gTxNPJ+Og0BgwY4B7L45o0aeLdIyJ/F79/5V/6Y//43pfCnhHn/SIm8RMW4e6++26XwSYbXbVqVW/rfxHHgECeBAiJin/84x/WokULF4hTQsLzkxHn+Xmfyagzg3jNNde4jLiPtpzfQ4kMj/M/v1mzZrlSQ7LwPr9cUBnxg+ewyIizMzLS4wQDsm3UnorI34OM+KWXXuoy0kOHDrXU1FSXCec4pPEm+PY1atTIZc9r1arlBsfffvvt7oY/vMabqVQCbmofeT6eKy90TjyWzkREDg6Cvi+++MINqikt29PxKX9F4oBSDxKLuW+0k3/88YdLKOR1P+0gOBGT0hY/U02sQ1t65ZVXukRJr169XCBPsuPqq692ZYF5rcTCdh770EMP2aOPPupuBKHnnXfe7u/vuecelyCRg+uQDcQZnZNFYydl9Hf0kUe7aWymy/d29rCI7B86ATIvZGEY9JKxofGmbptOmqw4x+R3333nMi90AH4Ghg6dzHjuDAS14NQvkumhrnxPM1pTp051mXie0z9hSUT+XpwUSElYv379rEePHu7GLNivv/7qzgmRvBFMz5w50wXj4TfilClTprglDElOhN9H0M37SrvKe06MQwIifEaB9pLEBdlx2kFmKZgdZBuJjrwGSrTBJDFatmxprVu3djfO8SEp4n/PfZyDIwfXIRWIk4HjJC7qSPte3dfOPetcN7obOmSozVswz9U3MVrMaxpIRA48Ogtw9j9ToWRVyMoQSL/22msuIOckTh/HJicm5Z7a5ns6FzLd/pQsU6633367K4vxb8x40fGfeuqprhMRkb8fxy3T+dQ6L1682M18cW4H5Q6Ujz7yyCM2atSofK+JXViwahTtFrOC4bcjjjjCBcsMcGjzLrnkkt33cS4MmW7aQ07MJIvdtWtXdxK7j5IfAnZmJCk7YZWTYcOGuSURSXbkhbaakzz5mUGDBrkbyUxWp/K/p6qA83fk4Ir6QJzldhg1Uit6w3U32E033uRORBj62VCb/OtkW7hwoW3ctNFydir4FjnY6Cz87DWdDh0MJ2Fyhj4Zcjpv6snpuOnMydYwY+XXIYajjpRayC+//NI9lqz50Ucfbccff7y7nXjiiW5VFWorycj5AbuIHDwEkDt27HAn95EYI/gjOcZxyXkdDz/8sFuzmsRYYcfMHRlnMtXcKOHjPBgy5SzD2q5dO5fN5lwb3lf/caykwnYSHATyZKv9lVUo92P2kJM3aUepM6cdJjHB4wnYaWdz4/k5OZNZTM7z4cbroD32v+czVUXBwRe1J2sSbFP3xMiP791ZxUuW2vaU7XlOu/jYERlBKlsmBwqlEtTS0WgWJns6WZNaRaZTyU5TSsKyWZSLgPfIP/GHpbBGjBhhTz31lKtn5ESj+++/30278rwdO3Z0jwMdCtOyd955pz3//PMuqGcJL7JD/gmZZM2pK9f64f+LDvaJJ55w7WUUNulyiONY5sQ+SsP2hsCTNbEpP2vYsKE1a9bMHdOUrBXW5QtBKS3vwcCBA93VMSnlYyUU+hbOuWFpQ9o1Vqgi6eAvQ+gjOUE5CwtY0JZS7vLhhx+6z4VkJe/7jTfe6J6DYJo2mM/ARz06P8fJiZSzUFoIVp+iFIXkCQjMKZnhd+lkzYMnqgNxTvBiB6YBYCH7BfMXuB1vb9lvRoIXXHDBX6ZxRPYHU4cEjTRghUlegThBOJ0GnQBTnZSfsK44xyvrglMyQraabTyW6VKmW2+55RZ3XBKEP/bYY24ZLhpCOguy3xzjnLTE/XQCZG3yWjVF8ka5zltvveXecwXicqAxwOPYzL0Wdm4EglxUhqxt06ZNXWaXc0YKayBOOS0zAwTdzBLQrtE+EnATBNNOssoUgfWnn37q4h3aRt6/o446yg1qyIyHB+K0i3weP/74o1uBiqqAiy66yJUEksDIjXaaAdQNN9zgVpui3IXnhNYRVyC+RwQAnDXMTnfWWWfZnDlz3Ihu+u/T3X1Lli6xZUuXubqo3EE5I0E6/8IWNIkcaH4gzszUkUce6bZRA8oJRGRgOdue2ScadTqaAQMGuMfQATMjRT0p9Yb8S/BN2QplLG+88YbLuhCE0zkTiFOWwo1OihVZ/Av6KBAXCd6iRYvccfvkk096W/6LsgjaCK6KS5BH8M1Jf7QDZF5JZBTW5QsJvKm9pvSEQTJtJhc44wRLyvDIfJOpZglY2kROcCfWoU1kxpH3kGx37kCcQJLEB49h5RVqyMmyMwtBhp3A0i/dW7NmjX322Wc2ePBg9y/JSr+cMDwQJ7POoIFSo3feeUeB+EEU+xBnO0YZOm7qwpm24YDmIGdnYWejVooDvlLFSpZcMtkSSyS6nSo1JdV2hv5jJ7vwwguVERfZTzRWZF44+ce/4ATre/tXbSMI90+65FilM+HYZeDMjZ+jE6bjoQPxG38CcDI/zHLRifC81D9yUR9OWgInMTHQPuaYY/5yVU8ROfioG/Yz4hzHlIASWFN6wjHKTBhZWQJN+mmOcQJ0jmNmxCibCDrYCQKBLSexMrtPgoH3ifcOZJ4Jstu0aePqxSkR4ZwY1gFn0QneR9pa2lhOsmTWkPeU95EMN4EywT1lJbS7JEiYeaCNJvjm52g72c5sGTEU7bbfDoMSQ2Il4ipqxKlfnzRpkmu7CVIPV/Q/DJD4uxk85r5688F2yF7QhzeSVRW4TOykiZNs/NjxtnbDWrejMv1C9k1EDj4CaKY46TD2dq4GWXUCfTojOiIRiU6srsGM19tvv+3KHzjpkHK9Ll26WP369XdfMj03ju/CnBGnNIWysbySCSwFSUackr19tX9kypnpp8yEGIcZCp6TE9hJdFAXzoonDJZofzmZlmoCgn9KWFj/nfNzKHcJF14jzs/yGTN4IGPPSfaHK5Wm5EN+AvFw/Ans7Iw8GTUyMieLLiIiIvuHLCuZUgI+Ahcy3uGZ1T0p7IH43rD8IIF4q1atdq+IsifMHjLLyMwE5T7MQFJLnhfKYXi/GTAxY0HCgww3mV/ZRYF4PhQ0EBcREZHookBcolG0BeKH1AV9REREREQOFwrERUREREQCoEBcRERERCQACsRFRERERAKgQFxE9gtr3rKmLZez56QsToQBy2CxvKj/fW6sdcuSWawIICIiu66EyYIVrDNOm8p1FlgGESxbOG3aNHfxnbywFjir2/CvHDoUiItIRFhwiaWxuDT9119/7a7Ixhr+XPSD4JtOgyu5cbGJvHBpZjoarr4JOhuW5xIRKYxoN7kAD1ci5pL4rB3O2u1cRZPgm/u4CM+e2kmuyklbzAWAwHriXA1ZopsCcRGJCJkbrsRGMF2hQgVr0aKFu7IbmRyyOHQWdAx76jS4CAhXjuMCFeBCFDzXngJ3EZHDGW3l0KFD3ZXFuVw9V8MksUGSgxlE1gNn1pFZyLxw1U7a1OLFi7vvaY+5oI9ENwXiIhIRMthkw+kszj33XHd5+jPPPNOqVavmLrDlI3POpa65hV+2gKvfcknsY4891n1PRzNkyBB3QYoovLyBiMjfiisS//zzz649vfjii+3qq6927SnBNxdT8uXk5Lj2NHfZH5fL5+datmzpvqfEhcy6RDcF4iISkezsbHe1Ny5xTU0iJSaNGze2Cy+80F0tDn6JypgxY9yNK9/SgcC/xD3ZHerJyZ4zjcq0Ks9FdogOR0SkMOAKm2TCe/fubQkJCa6NTE1Ntbi4uN1X3yTJQYBNe0q2nPaSthi0pbSbZM55DOV/zDTSns6YMcM9RqKPrqwpIgVGs0HQ3LFjR5fRXrVqlesESpcu7QLx008/3U2J3nPPPVanTh2X6SGoZur0vvvus9atW7vp1q+++spq1apl1atXd8c8J25yWWY6nYcfftjatm27e5pVRA4turJm5AiuKfN76KGH7NRTT3VXgaT++6233rIqVaq4IJ12mMvkP/fcc+79HTx4sGtXubw9NeV8vW7dOtemlitXzt0vurKmiBwGaOTJbi9evNj9269fP3vnnXdcQE3nMXXqVPc4MjmUrvhBN0H1888/734GnEzEtosuush1MCeccIK98sor7vHHHHOMgnARKZQo0SPAJlHRvXt3F3yDTDntJO3se++955IcDz74oJtVBBlzEhi0s4888oidcsopNnLkSAXhUUyBuIjsl759+1rdunXdjawMHcjMmTPdfWTDzjrrLIuJiXEnZfbs2dPdT6ZMRET+F5nu2267zZWl3HTTTS6w9jVo0MB69OhhRYoUcVluZh//+OMPl9SQQ5MCcREpMEpHONmydu3absUUMt90DNzIyDBtCgLwokWL7v66Xr167mejsCJORCRw1HhTkkud91NPPeWC8PDyXNpYv03l30aNGrmv1aYeuhSIi0iBEVQzRVqpUiW31BbToyAIJ0vDdCo4MXPZsmXua3DCEJ2Hf+KRiIjsQvD9zDPPuHbyhhtusKZNm7p2Nhzn4nBODli5ihMxqRP3g3M59ERlIF6sWDE3zV21alXX4YtI9CELznKF1H4PGjTIPvroI7fyCSun+KumsCQhF/lhCS3Wxx0wYIC7z693DEfWhxM6WcKQ9cm5GJBKWEQOXQSHXbt2dX267B0nELIKFe0oJX2cDM91FWg3OUmT83HA2uAff/yxDR8+3LWVLCFLqUpycrK7PzeWPRw4cKBbFnHKlCnu+g+FHbMK9FO8z/RjQYt9iFNyowwHL5k2smrUlSoYF4k+NGYMlgmWyXpzYwB90kknuUaOLDmBOI0dy2hxgiZr4p5zzjluyUN/aS5WVWnSpIlrEFlVhavHUfPIcc/Z/mwTkUMPg2vK1yhJU8Z270hC0Jaywgx14OB7LnBGFpx2FLSbrPJBQM6NtvTSSy/d3RZzIr1fNki5Cm0sbS9LzPIcbC/sK9HRt1SsWNG9d/Qv9GVBisrlC0Xk0EGQzcmZTJMSgBNYs9oJ69eyHCGDaToMMj5MtdL4kSHjfgJ1plX9pc0obfnll19cFofaRy5M4V95U0TkcEUgvmXLFpeEyI0kBQE02WzKUgiklyxZ4n6GVakY6LCNlVMobyHIJOimzSVBQqkLoR4X/KlRo0ahD8SjjQJxEREREZEA6GRNEREREZEAKBAXEREREQmAAnERERERkQAoEBcRERERCYACcRERERGRACgQFxEREREJgAJxEREREZEAKBAXEREREQmAAnERERERkQAoEBcRERERCYACcRERERGRACgQFxEREREJgAJxEREREZEAKBAXEREREQmAAnERERERkQAoEBcRERERCYACcRERERGRACgQFxEREREJgAJxEREREZEAKBAXEREREQmAAnERERERkQAoEBcRERERCYACcRERERGRACgQFxEREREJgAJxEREREZEAKBAXEREREQmAAnERERERkQAoEBcRERERCYACcRERERGRACgQFxERERE56Mz+H2pCfa+Eo9WbAAAAAElFTkSuQmCC;" vertex="1" parent="1">
          <mxGeometry x="652" y="396" width="290.32" height="136.11" as="geometry" />
        </mxCell>
      </root>
    </mxGraphModel>
  </diagram>
</mxfile>
